<mxfile host="app.diagrams.net" modified="2022-07-08T03:14:19.634Z" agent="5.0 (Windows NT 10.0; Win64; x64) AppleWebKit/537.36 (KHTML, like Gecko) Chrome/102.0.0.0 Safari/537.36" etag="72KR2ko2QTKNqi5dVxTX" version="19.0.3" type="github" pages="2">
  <diagram id="D_swciktnPdjb46JudOr" name="Page-1">
    <mxGraphModel dx="1422" dy="804" grid="1" gridSize="10" guides="1" tooltips="1" connect="1" arrows="1" fold="1" page="1" pageScale="1" pageWidth="827" pageHeight="1169" math="0" shadow="0">
      <root>
        <mxCell id="0" />
        <mxCell id="1" parent="0" />
        <mxCell id="DQPmgrzYjxP60koyYohO-20" style="edgeStyle=orthogonalEdgeStyle;rounded=0;orthogonalLoop=1;jettySize=auto;html=1;entryX=0;entryY=0.5;entryDx=0;entryDy=0;" edge="1" parent="1" source="DQPmgrzYjxP60koyYohO-1" target="DQPmgrzYjxP60koyYohO-19">
          <mxGeometry relative="1" as="geometry" />
        </mxCell>
        <mxCell id="DQPmgrzYjxP60koyYohO-1" value="广告" style="rounded=1;whiteSpace=wrap;html=1;" vertex="1" parent="1">
          <mxGeometry x="100" y="280" width="120" height="60" as="geometry" />
        </mxCell>
        <mxCell id="DQPmgrzYjxP60koyYohO-10" style="edgeStyle=orthogonalEdgeStyle;rounded=0;orthogonalLoop=1;jettySize=auto;html=1;exitX=0.5;exitY=1;exitDx=0;exitDy=0;entryX=0.55;entryY=0.167;entryDx=0;entryDy=0;entryPerimeter=0;strokeColor=none;" edge="1" parent="1" target="DQPmgrzYjxP60koyYohO-9">
          <mxGeometry relative="1" as="geometry">
            <mxPoint x="400" y="340" as="sourcePoint" />
            <Array as="points">
              <mxPoint x="400" y="430" />
              <mxPoint x="400" y="430" />
            </Array>
          </mxGeometry>
        </mxCell>
        <mxCell id="DQPmgrzYjxP60koyYohO-8" value="cid" style="text;html=1;align=center;verticalAlign=middle;resizable=0;points=[];autosize=1;strokeColor=none;fillColor=none;" vertex="1" parent="1">
          <mxGeometry x="260" y="290" width="30" height="20" as="geometry" />
        </mxCell>
        <mxCell id="DQPmgrzYjxP60koyYohO-9" value="淘宝联盟短链" style="rounded=1;whiteSpace=wrap;html=1;" vertex="1" parent="1">
          <mxGeometry x="340" y="480" width="120" height="60" as="geometry" />
        </mxCell>
        <mxCell id="DQPmgrzYjxP60koyYohO-17" style="edgeStyle=orthogonalEdgeStyle;rounded=0;orthogonalLoop=1;jettySize=auto;html=1;entryX=1;entryY=0.5;entryDx=0;entryDy=0;" edge="1" parent="1" source="DQPmgrzYjxP60koyYohO-16" target="DQPmgrzYjxP60koyYohO-19">
          <mxGeometry relative="1" as="geometry">
            <mxPoint x="660" y="340" as="targetPoint" />
          </mxGeometry>
        </mxCell>
        <mxCell id="DQPmgrzYjxP60koyYohO-16" value="淘宝联盟" style="rounded=1;whiteSpace=wrap;html=1;" vertex="1" parent="1">
          <mxGeometry x="621" y="280" width="120" height="60" as="geometry" />
        </mxCell>
        <mxCell id="DQPmgrzYjxP60koyYohO-18" value="点击时间&lt;br&gt;订单信息" style="text;html=1;align=center;verticalAlign=middle;resizable=0;points=[];autosize=1;strokeColor=none;fillColor=none;" vertex="1" parent="1">
          <mxGeometry x="511" y="270" width="60" height="30" as="geometry" />
        </mxCell>
        <mxCell id="DQPmgrzYjxP60koyYohO-21" style="edgeStyle=orthogonalEdgeStyle;rounded=0;orthogonalLoop=1;jettySize=auto;html=1;exitX=0.5;exitY=1;exitDx=0;exitDy=0;entryX=0.5;entryY=0;entryDx=0;entryDy=0;" edge="1" parent="1" source="DQPmgrzYjxP60koyYohO-19" target="DQPmgrzYjxP60koyYohO-9">
          <mxGeometry relative="1" as="geometry">
            <mxPoint x="400" y="280" as="targetPoint" />
          </mxGeometry>
        </mxCell>
        <mxCell id="DQPmgrzYjxP60koyYohO-19" value="cid服务" style="rounded=1;whiteSpace=wrap;html=1;" vertex="1" parent="1">
          <mxGeometry x="340" y="280" width="120" height="60" as="geometry" />
        </mxCell>
        <mxCell id="DQPmgrzYjxP60koyYohO-22" value="重定向" style="text;html=1;align=center;verticalAlign=middle;resizable=0;points=[];autosize=1;strokeColor=none;fillColor=none;" vertex="1" parent="1">
          <mxGeometry x="404" y="395" width="50" height="20" as="geometry" />
        </mxCell>
        <mxCell id="DQPmgrzYjxP60koyYohO-24" style="edgeStyle=orthogonalEdgeStyle;rounded=0;orthogonalLoop=1;jettySize=auto;html=1;entryX=0.5;entryY=0;entryDx=0;entryDy=0;" edge="1" parent="1" source="DQPmgrzYjxP60koyYohO-23" target="DQPmgrzYjxP60koyYohO-19">
          <mxGeometry relative="1" as="geometry" />
        </mxCell>
        <mxCell id="DQPmgrzYjxP60koyYohO-23" value="商家后台" style="rounded=1;whiteSpace=wrap;html=1;" vertex="1" parent="1">
          <mxGeometry x="340" y="100" width="120" height="60" as="geometry" />
        </mxCell>
        <mxCell id="DQPmgrzYjxP60koyYohO-25" value="订单信息" style="text;html=1;align=center;verticalAlign=middle;resizable=0;points=[];autosize=1;strokeColor=none;fillColor=none;" vertex="1" parent="1">
          <mxGeometry x="414" y="205" width="60" height="20" as="geometry" />
        </mxCell>
        <mxCell id="-0w_Gq1OZ1xAUIWFBaJH-15" style="edgeStyle=orthogonalEdgeStyle;rounded=0;orthogonalLoop=1;jettySize=auto;html=1;entryX=1;entryY=0.5;entryDx=0;entryDy=0;shadow=0;startArrow=none;startFill=0;" edge="1" parent="1" source="-0w_Gq1OZ1xAUIWFBaJH-2" target="-0w_Gq1OZ1xAUIWFBaJH-3">
          <mxGeometry relative="1" as="geometry">
            <Array as="points">
              <mxPoint x="700" y="840" />
            </Array>
          </mxGeometry>
        </mxCell>
        <mxCell id="-0w_Gq1OZ1xAUIWFBaJH-2" value="定时爬虫" style="rounded=1;whiteSpace=wrap;html=1;" vertex="1" parent="1">
          <mxGeometry x="640" y="1130" width="120" height="60" as="geometry" />
        </mxCell>
        <mxCell id="-0w_Gq1OZ1xAUIWFBaJH-18" style="edgeStyle=orthogonalEdgeStyle;rounded=0;orthogonalLoop=1;jettySize=auto;html=1;shadow=0;startArrow=none;startFill=0;" edge="1" parent="1" source="-0w_Gq1OZ1xAUIWFBaJH-3">
          <mxGeometry relative="1" as="geometry">
            <mxPoint x="380" y="840" as="targetPoint" />
          </mxGeometry>
        </mxCell>
        <mxCell id="-0w_Gq1OZ1xAUIWFBaJH-3" value="数据库" style="rounded=1;whiteSpace=wrap;html=1;" vertex="1" parent="1">
          <mxGeometry x="520" y="810" width="120" height="60" as="geometry" />
        </mxCell>
        <mxCell id="-0w_Gq1OZ1xAUIWFBaJH-14" style="edgeStyle=orthogonalEdgeStyle;rounded=0;orthogonalLoop=1;jettySize=auto;html=1;entryX=0;entryY=0.5;entryDx=0;entryDy=0;shadow=0;startArrow=none;startFill=0;" edge="1" parent="1" source="-0w_Gq1OZ1xAUIWFBaJH-4" target="-0w_Gq1OZ1xAUIWFBaJH-2">
          <mxGeometry relative="1" as="geometry" />
        </mxCell>
        <mxCell id="-0w_Gq1OZ1xAUIWFBaJH-4" value="淘宝联盟" style="rounded=1;whiteSpace=wrap;html=1;" vertex="1" parent="1">
          <mxGeometry x="260" y="1130" width="120" height="60" as="geometry" />
        </mxCell>
        <mxCell id="-0w_Gq1OZ1xAUIWFBaJH-13" style="edgeStyle=orthogonalEdgeStyle;rounded=0;orthogonalLoop=1;jettySize=auto;html=1;entryX=0.5;entryY=1;entryDx=0;entryDy=0;shadow=0;startArrow=none;startFill=0;" edge="1" parent="1" source="-0w_Gq1OZ1xAUIWFBaJH-5" target="-0w_Gq1OZ1xAUIWFBaJH-3">
          <mxGeometry relative="1" as="geometry" />
        </mxCell>
        <mxCell id="-0w_Gq1OZ1xAUIWFBaJH-5" value="推广位调度" style="rounded=1;whiteSpace=wrap;html=1;" vertex="1" parent="1">
          <mxGeometry x="520" y="970" width="120" height="60" as="geometry" />
        </mxCell>
        <mxCell id="-0w_Gq1OZ1xAUIWFBaJH-9" style="edgeStyle=orthogonalEdgeStyle;rounded=0;orthogonalLoop=1;jettySize=auto;html=1;entryX=0;entryY=0.5;entryDx=0;entryDy=0;startArrow=classic;startFill=1;shadow=0;" edge="1" parent="1" source="-0w_Gq1OZ1xAUIWFBaJH-6" target="-0w_Gq1OZ1xAUIWFBaJH-5">
          <mxGeometry relative="1" as="geometry" />
        </mxCell>
        <mxCell id="-0w_Gq1OZ1xAUIWFBaJH-10" style="edgeStyle=orthogonalEdgeStyle;rounded=0;orthogonalLoop=1;jettySize=auto;html=1;entryX=0.5;entryY=0;entryDx=0;entryDy=0;shadow=0;startArrow=classic;startFill=1;" edge="1" parent="1" source="-0w_Gq1OZ1xAUIWFBaJH-6" target="-0w_Gq1OZ1xAUIWFBaJH-4">
          <mxGeometry relative="1" as="geometry" />
        </mxCell>
        <mxCell id="-0w_Gq1OZ1xAUIWFBaJH-6" value="core" style="rounded=1;whiteSpace=wrap;html=1;" vertex="1" parent="1">
          <mxGeometry x="260" y="970" width="120" height="60" as="geometry" />
        </mxCell>
        <mxCell id="-0w_Gq1OZ1xAUIWFBaJH-34" style="edgeStyle=orthogonalEdgeStyle;rounded=0;orthogonalLoop=1;jettySize=auto;html=1;entryX=0.5;entryY=0;entryDx=0;entryDy=0;shadow=0;startArrow=none;startFill=0;" edge="1" parent="1" source="-0w_Gq1OZ1xAUIWFBaJH-7" target="-0w_Gq1OZ1xAUIWFBaJH-32">
          <mxGeometry relative="1" as="geometry" />
        </mxCell>
        <mxCell id="-0w_Gq1OZ1xAUIWFBaJH-7" value="广告" style="rounded=1;whiteSpace=wrap;html=1;" vertex="1" parent="1">
          <mxGeometry x="30" y="810" width="120" height="60" as="geometry" />
        </mxCell>
        <mxCell id="-0w_Gq1OZ1xAUIWFBaJH-11" value="重定向" style="text;html=1;align=center;verticalAlign=middle;resizable=0;points=[];autosize=1;strokeColor=none;fillColor=none;" vertex="1" parent="1">
          <mxGeometry x="270" y="1070" width="50" height="20" as="geometry" />
        </mxCell>
        <mxCell id="-0w_Gq1OZ1xAUIWFBaJH-17" style="edgeStyle=orthogonalEdgeStyle;rounded=0;orthogonalLoop=1;jettySize=auto;html=1;entryX=0;entryY=0.5;entryDx=0;entryDy=0;shadow=0;startArrow=none;startFill=0;" edge="1" parent="1" source="-0w_Gq1OZ1xAUIWFBaJH-16" target="-0w_Gq1OZ1xAUIWFBaJH-3">
          <mxGeometry relative="1" as="geometry" />
        </mxCell>
        <mxCell id="-0w_Gq1OZ1xAUIWFBaJH-33" style="edgeStyle=orthogonalEdgeStyle;rounded=0;orthogonalLoop=1;jettySize=auto;html=1;entryX=1;entryY=0.5;entryDx=0;entryDy=0;shadow=0;startArrow=none;startFill=0;" edge="1" parent="1" source="-0w_Gq1OZ1xAUIWFBaJH-16" target="-0w_Gq1OZ1xAUIWFBaJH-7">
          <mxGeometry relative="1" as="geometry" />
        </mxCell>
        <mxCell id="-0w_Gq1OZ1xAUIWFBaJH-16" value="定时匹配" style="rounded=1;whiteSpace=wrap;html=1;" vertex="1" parent="1">
          <mxGeometry x="260" y="810" width="120" height="60" as="geometry" />
        </mxCell>
        <mxCell id="-0w_Gq1OZ1xAUIWFBaJH-21" style="edgeStyle=orthogonalEdgeStyle;rounded=0;orthogonalLoop=1;jettySize=auto;html=1;entryX=0.5;entryY=1;entryDx=0;entryDy=0;shadow=0;startArrow=none;startFill=0;" edge="1" parent="1" source="-0w_Gq1OZ1xAUIWFBaJH-20" target="-0w_Gq1OZ1xAUIWFBaJH-2">
          <mxGeometry relative="1" as="geometry" />
        </mxCell>
        <mxCell id="-0w_Gq1OZ1xAUIWFBaJH-20" value="商家后台" style="rounded=1;whiteSpace=wrap;html=1;" vertex="1" parent="1">
          <mxGeometry x="640" y="1290" width="120" height="60" as="geometry" />
        </mxCell>
        <mxCell id="-0w_Gq1OZ1xAUIWFBaJH-22" value="订单信息" style="text;html=1;align=center;verticalAlign=middle;resizable=0;points=[];autosize=1;strokeColor=none;fillColor=none;" vertex="1" parent="1">
          <mxGeometry x="700" y="1230" width="60" height="20" as="geometry" />
        </mxCell>
        <mxCell id="-0w_Gq1OZ1xAUIWFBaJH-23" value="订单信息，点击事件" style="text;html=1;align=center;verticalAlign=middle;resizable=0;points=[];autosize=1;strokeColor=none;fillColor=none;" vertex="1" parent="1">
          <mxGeometry x="451" y="1140" width="120" height="20" as="geometry" />
        </mxCell>
        <mxCell id="-0w_Gq1OZ1xAUIWFBaJH-25" value="读取数据，匹配cid，&lt;br&gt;存储结果" style="text;html=1;align=center;verticalAlign=middle;resizable=0;points=[];autosize=1;strokeColor=none;fillColor=none;" vertex="1" parent="1">
          <mxGeometry x="380" y="805" width="130" height="30" as="geometry" />
        </mxCell>
        <mxCell id="-0w_Gq1OZ1xAUIWFBaJH-26" value="查询空闲推广位" style="text;html=1;align=center;verticalAlign=middle;resizable=0;points=[];autosize=1;strokeColor=none;fillColor=none;" vertex="1" parent="1">
          <mxGeometry x="395" y="980" width="100" height="20" as="geometry" />
        </mxCell>
        <mxCell id="-0w_Gq1OZ1xAUIWFBaJH-27" value="返回淘宝联盟短链" style="text;html=1;align=center;verticalAlign=middle;resizable=0;points=[];autosize=1;strokeColor=none;fillColor=none;" vertex="1" parent="1">
          <mxGeometry x="395" y="1000" width="110" height="20" as="geometry" />
        </mxCell>
        <mxCell id="-0w_Gq1OZ1xAUIWFBaJH-28" value="回传cid，优化投放" style="text;html=1;align=center;verticalAlign=middle;resizable=0;points=[];autosize=1;strokeColor=none;fillColor=none;" vertex="1" parent="1">
          <mxGeometry x="150" y="820" width="110" height="20" as="geometry" />
        </mxCell>
        <mxCell id="-0w_Gq1OZ1xAUIWFBaJH-29" value="用户点击&lt;br&gt;cid" style="text;html=1;align=center;verticalAlign=middle;resizable=0;points=[];autosize=1;strokeColor=none;fillColor=none;" vertex="1" parent="1">
          <mxGeometry x="90" y="905" width="60" height="30" as="geometry" />
        </mxCell>
        <mxCell id="-0w_Gq1OZ1xAUIWFBaJH-31" value="cid&lt;br&gt;pid&lt;br&gt;time&lt;br&gt;用户指纹" style="text;html=1;align=center;verticalAlign=middle;resizable=0;points=[];autosize=1;strokeColor=none;fillColor=none;" vertex="1" parent="1">
          <mxGeometry x="580" y="890" width="60" height="60" as="geometry" />
        </mxCell>
        <mxCell id="-0w_Gq1OZ1xAUIWFBaJH-35" style="edgeStyle=orthogonalEdgeStyle;rounded=0;orthogonalLoop=1;jettySize=auto;html=1;entryX=0;entryY=0.5;entryDx=0;entryDy=0;shadow=0;startArrow=none;startFill=0;" edge="1" parent="1" source="-0w_Gq1OZ1xAUIWFBaJH-32" target="-0w_Gq1OZ1xAUIWFBaJH-6">
          <mxGeometry relative="1" as="geometry" />
        </mxCell>
        <mxCell id="-0w_Gq1OZ1xAUIWFBaJH-32" value="自定义落地页" style="rounded=1;whiteSpace=wrap;html=1;" vertex="1" parent="1">
          <mxGeometry x="30" y="970" width="120" height="60" as="geometry" />
        </mxCell>
        <mxCell id="-0w_Gq1OZ1xAUIWFBaJH-36" value="点击热区" style="text;html=1;align=center;verticalAlign=middle;resizable=0;points=[];autosize=1;strokeColor=none;fillColor=none;" vertex="1" parent="1">
          <mxGeometry x="175" y="980" width="60" height="20" as="geometry" />
        </mxCell>
        <mxCell id="-0w_Gq1OZ1xAUIWFBaJH-38" value="用户指纹" style="text;html=1;align=center;verticalAlign=middle;resizable=0;points=[];autosize=1;strokeColor=none;fillColor=none;" vertex="1" parent="1">
          <mxGeometry x="175" y="1000" width="60" height="20" as="geometry" />
        </mxCell>
      </root>
    </mxGraphModel>
  </diagram>
  <diagram id="JkVqJfNdj9v2ZmovP4rx" name="Page-2">
    <mxGraphModel dx="1422" dy="804" grid="1" gridSize="10" guides="1" tooltips="1" connect="1" arrows="1" fold="1" page="1" pageScale="1" pageWidth="827" pageHeight="1169" math="0" shadow="0">
      <root>
        <mxCell id="0" />
        <mxCell id="1" parent="0" />
      </root>
    </mxGraphModel>
  </diagram>
</mxfile>
